<svg width="32" height="32" viewBox="0 0 32 32" fill="none" xmlns="http://www.w3.org/2000/svg">
<g clip-path="url(#clip0_2216_1377)">
<path d="M30.67 23.34L28.79 21.44C28.4 21.04 27.76 21.02 27.33 21.38C27.04 21.06 26.54 20.58 26.21 20.25C26.11 20.16 26.06 20.03 26.07 19.89C26.14 17.84 25.84 17.37 25.75 17.22C25.67 17.09 25.42 16.71 23.72 15.32C23.17 14.87 22.44 14.77 21.78 15.02V9.25C21.78 8.78 21.61 8.33 21.31 7.98L21.07 7.7C20.94 7.55 20.87 7.35 20.87 7.15V6.69C21.38 6.62 21.79 6.2 21.79 5.67V3.05C21.79 2.47 21.32 2 20.74 2H13.19C12.61 2 12.14 2.47 12.14 3.05V5.69C12.14 6.21 12.53 6.62 13.02 6.7V8.38L11.57 10.16C11.37 10.41 11.26 10.72 11.26 11.03V13.86C11.26 14.38 11.56 14.84 11.99 15.07L11.75 15.3C11.68 15.18 11.6 15.07 11.49 14.98C10.92 14.46 10.03 14.46 9.47 15L7.37 16.99C7.03 17.31 6.84 17.76 6.84 18.23V20.25L5.68 21.39C5.49 21.23 5.26 21.13 5.01 21.12C4.72 21.12 4.44 21.23 4.23 21.43L2.35 23.24C2.12 23.45 2 23.72 2 24.01C2 24.3 2.11 24.58 2.31 24.78L7.53 30.08C7.73 30.29 8.01 30.4 8.3 30.41C8.59 30.41 8.86 30.3 9.07 30.09L10.97 28.21C11.38 27.8 11.39 27.13 11 26.7L11.43 26.27H12.21C12.7 26.26 13.16 26.07 13.5 25.72C15.04 24.2 15.92 23.32 16.41 22.79L19.31 25.75C19.64 26.09 20.11 26.29 20.58 26.29H21.32L21.9 26.87C21.79 27.04 21.71 27.23 21.7 27.44C21.7 27.73 21.81 28.01 22.01 28.22L23.82 30.1C24.02 30.31 24.3 30.42 24.59 30.43C24.88 30.43 25.15 30.32 25.35 30.12L30.65 24.9C30.86 24.69 30.97 24.42 30.97 24.13C30.97 23.84 30.86 23.56 30.65 23.36L30.67 23.34ZM13.17 3L20.77 3.05V5.69C20.77 5.69 20.75 5.74 20.72 5.74L13.12 5.69L13.17 3ZM13.51 11.72C13.23 11.72 13.01 11.94 13.01 12.22V13.87C13.01 14.08 12.84 14.25 12.63 14.25C12.42 14.25 12.25 14.08 12.25 13.87V11.04C12.25 10.95 12.28 10.87 12.34 10.8L13.91 8.88C13.98 8.79 14.02 8.68 14.02 8.56V6.73H19.87V7.17C19.87 7.61 20.03 8.04 20.32 8.37L20.56 8.65C20.71 8.82 20.79 9.04 20.79 9.27V14.57L18.35 12.16C17.86 11.67 17.11 11.62 16.54 11.98C16.16 11.8 15.56 11.73 14.83 12.42L14.04 13.17V12.24C14.04 11.96 13.82 11.74 13.54 11.74L13.51 11.72ZM10.28 27.5L8.38 29.38H8.25L3.03 24.08L2.67 24.43L3.02 23.96L4.96 22.13C4.96 22.13 5 22.13 5.02 22.16L5.29 22.43L10.26 27.37C10.26 27.37 10.29 27.46 10.26 27.49L10.28 27.5ZM12.81 25.01C12.65 25.17 12.44 25.26 12.21 25.26H11.23C11.1 25.27 10.97 25.32 10.88 25.42L10.31 25.99L6.39 22.09L7.68 20.83C7.78 20.74 7.83 20.61 7.83 20.47V18.24C7.83 18.05 7.91 17.86 8.05 17.72L10.15 15.73C10.33 15.56 10.62 15.56 10.8 15.73C10.9 15.82 10.95 15.94 10.95 16.07C10.95 16.2 10.9 16.32 10.81 16.42L9.63 17.61C9.44 17.81 9.44 18.12 9.63 18.32C9.82 18.52 10.14 18.52 10.34 18.32L11.52 17.13C11.7 16.95 11.81 16.74 11.88 16.51C11.92 16.49 11.96 16.47 12 16.43L14.12 14.43C14.14 14.48 14.17 14.53 14.2 14.58C14.03 14.65 13.86 14.74 13.72 14.87C13.43 15.14 13.27 15.51 13.26 15.9C13.26 16.16 13.32 16.41 13.44 16.63C13.26 16.7 13.08 16.8 12.93 16.94C12.62 17.22 12.44 17.61 12.43 18.03C12.42 18.45 12.57 18.85 12.87 19.15L15.74 22.09C15.31 22.53 14.4 23.43 12.81 25.01ZM21.54 25.29H20.59C20.38 25.29 20.18 25.21 20.03 25.06L13.58 18.46C13.48 18.35 13.42 18.22 13.43 18.07C13.43 17.92 13.5 17.79 13.6 17.69C13.81 17.49 14.14 17.5 14.35 17.71L15.39 18.75L17.86 21.3C17.96 21.4 18.09 21.45 18.22 21.45C18.35 21.45 18.47 21.4 18.57 21.31C18.77 21.12 18.77 20.8 18.58 20.6L14.39 16.27C14.3 16.18 14.26 16.06 14.26 15.93C14.26 15.81 14.32 15.69 14.41 15.6C14.5 15.52 14.62 15.47 14.74 15.48C14.86 15.48 14.98 15.54 15.07 15.63L16.36 17.02L19.21 20.09C19.31 20.2 19.44 20.25 19.58 20.25C19.7 20.25 19.82 20.21 19.92 20.12C20.12 19.93 20.13 19.62 19.95 19.41L15.14 14.24C15.01 14.1 15.01 13.87 15.15 13.74C15.29 13.61 15.51 13.61 15.65 13.74L17.18 15.27L20.91 19.18C21.01 19.28 21.14 19.34 21.27 19.34C21.39 19.34 21.52 19.29 21.62 19.2C21.82 19.01 21.83 18.69 21.64 18.49L17.9 14.56L16.94 13.55C16.85 13.45 16.8 13.33 16.81 13.19C16.81 13.12 16.83 13.05 16.87 12.99C16.89 12.98 16.91 12.97 16.93 12.95C16.97 12.91 16.99 12.87 17.01 12.83C17.2 12.69 17.47 12.7 17.64 12.87L22.96 18.12C23.16 18.32 23.47 18.31 23.67 18.12C23.86 17.92 23.86 17.61 23.67 17.41L22.2 15.96C22.51 15.86 22.85 15.91 23.1 16.12C24.57 17.31 24.86 17.69 24.92 17.78C25 17.9 25.13 18.5 25.09 19.88C25.08 20.3 25.24 20.7 25.53 20.99C25.85 21.31 26.35 21.79 26.63 22.09L22.6 26.14L21.91 25.45C21.82 25.36 21.69 25.3 21.56 25.3L21.54 25.29ZM29.97 24.18L24.67 29.4H24.55L22.72 27.46C22.72 27.46 22.72 27.42 22.75 27.4C22.75 27.4 22.75 27.4 22.76 27.4L27.97 22.16C27.97 22.16 28.01 22.14 28.03 22.14C28.05 22.14 28.08 22.14 28.09 22.17L29.97 24.07V24.2V24.18Z" fill="#0026F9"/>
</g>
<defs>
<clipPath id="clip0_2216_1377">
<rect width="28.98" height="28.42" fill="white" transform="translate(2 2)"/>
</clipPath>
</defs>
</svg>
