<svg width="28" height="22" viewBox="0 0 28 22" fill="none" xmlns="http://www.w3.org/2000/svg">
<g clip-path="url(#clip0_2216_1534)">
<path d="M26.202 0H1.79804C0.805229 0 0 0.786193 0 1.75553V20.24C0 21.2093 0.805229 21.9955 1.79804 21.9955H26.1974C27.1902 21.9955 27.9954 21.2093 27.9954 20.24V1.75553C27.9954 0.786193 27.1902 0 26.1974 0H26.202ZM1.79804 0.893401H26.1974C26.6869 0.893401 27.0804 1.28203 27.0804 1.75553V3.86396H0.915033V1.75553C0.915033 1.27756 1.31307 0.893401 1.79804 0.893401ZM26.1974 21.1066H1.79804C1.3085 21.1066 0.915033 20.718 0.915033 20.2445V4.76183H27.085V20.24C27.085 20.718 26.6869 21.1021 26.202 21.1021L26.1974 21.1066Z" fill="#0026F9"/>
<path d="M24.2523 6.91504H17.0967C16.3144 6.91504 15.6738 7.53595 15.6738 8.30428V8.96986C15.6738 9.73372 16.3098 10.3591 17.0967 10.3591H24.2523C25.0346 10.3591 25.6751 9.73819 25.6751 8.96986V8.30428C25.6751 7.54042 25.0392 6.91504 24.2523 6.91504ZM24.7601 8.96539C24.7601 9.23788 24.5313 9.46123 24.2523 9.46123H17.0967C16.8176 9.46123 16.5889 9.23788 16.5889 8.96539V8.29981C16.5889 8.02732 16.8176 7.80397 17.0967 7.80397H24.2523C24.5313 7.80397 24.7601 8.02732 24.7601 8.29981V8.96539Z" fill="#0026F9"/>
<path d="M24.2523 11.3506H17.0967C16.3144 11.3506 15.6738 11.9715 15.6738 12.7398V13.4054C15.6738 14.1693 16.3098 14.7946 17.0967 14.7946H24.2523C25.0346 14.7946 25.6751 14.1737 25.6751 13.4054V12.7398C25.6751 11.976 25.0392 11.3506 24.2523 11.3506ZM24.7601 13.4009C24.7601 13.6734 24.5313 13.8968 24.2523 13.8968H17.0967C16.8176 13.8968 16.5889 13.6734 16.5889 13.4009V12.7354C16.5889 12.4629 16.8176 12.2395 17.0967 12.2395H24.2523C24.5313 12.2395 24.7601 12.4629 24.7601 12.7354V13.4009Z" fill="#0026F9"/>
<path d="M24.0374 16.0186H16.8819C16.0995 16.0186 15.459 16.6395 15.459 17.4078V18.0734C15.459 18.8372 16.0949 19.4626 16.8819 19.4626H24.0374C24.8198 19.4626 25.4603 18.8417 25.4603 18.0734V17.4078C25.4603 16.6439 24.8243 16.0186 24.0374 16.0186ZM24.5453 18.0689C24.5453 18.3414 24.3165 18.5647 24.0374 18.5647H16.8819C16.6028 18.5647 16.374 18.3414 16.374 18.0689V17.4033C16.374 17.1308 16.6028 16.9075 16.8819 16.9075H24.0374C24.3165 16.9075 24.5453 17.1308 24.5453 17.4033V18.0689Z" fill="#0026F9"/>
<path d="M7.78619 6.55762C4.42345 6.55762 1.6875 9.22889 1.6875 12.5121C1.6875 15.7954 4.42345 18.4667 7.78619 18.4667C11.1489 18.4667 13.8849 15.7954 13.8849 12.5121C13.8849 9.22889 11.1489 6.55762 7.78619 6.55762ZM12.947 12.0654H8.01495L5.02737 8.23721C5.82802 7.74137 6.77508 7.45102 7.78619 7.45102C10.4901 7.45102 12.7136 9.48351 12.947 12.0654ZM4.29992 8.77772L7.16397 12.4451L3.58162 15.4559C2.96855 14.625 2.60711 13.611 2.60711 12.5121C2.60711 11.0336 3.26593 9.70686 4.30449 8.77772H4.29992ZM7.78619 17.5733C6.38162 17.5733 5.10972 17.0238 4.17639 16.1349L7.95547 12.9588H12.947C12.7136 15.5408 10.4901 17.5733 7.78619 17.5733Z" fill="#0026F9"/>
</g>
<defs>
<clipPath id="clip0_2216_1534">
<rect width="28" height="22" fill="white"/>
</clipPath>
</defs>
</svg>
