<svg width="32" height="32" viewBox="0 0 32 32" fill="none" xmlns="http://www.w3.org/2000/svg">
<g clip-path="url(#clip0_2216_1567)">
<path d="M13.6405 14.57C15.9405 14.57 17.8005 12.7 17.8005 10.41C17.8005 8.12 15.9305 6.25 13.6405 6.25C11.3505 6.25 9.48047 8.12 9.48047 10.41C9.48047 12.7 11.3505 14.57 13.6405 14.57ZM13.6405 7.25C15.3805 7.25 16.8005 8.67 16.8005 10.41C16.8005 12.15 15.3805 13.57 13.6405 13.57C11.9005 13.57 10.4805 12.15 10.4805 10.41C10.4805 8.67 11.9005 7.25 13.6405 7.25Z" fill="#0026F9"/>
<path d="M17.7904 15.8499C16.5004 15.6699 15.8804 15.9599 15.3304 16.2199C14.9104 16.4199 14.5204 16.5999 13.7404 16.5999C13.0404 16.5999 12.8304 16.4599 12.5504 16.2599C12.1904 16.0099 11.7304 15.6899 10.5104 15.6899C7.55037 15.6899 6.56037 19.2599 6.52038 19.4099C6.45037 19.6799 6.61037 19.9499 6.87037 20.0199C7.14037 20.0899 7.41038 19.9299 7.48038 19.6699C7.48038 19.6399 8.31037 16.6899 10.5104 16.6899C11.4204 16.6899 11.6804 16.8699 11.9904 17.0799C12.3404 17.3199 12.7404 17.5999 13.7504 17.5999C14.7604 17.5999 15.2904 17.3499 15.7604 17.1199C16.2604 16.8799 16.6604 16.6999 17.6504 16.8399C19.3904 17.0899 19.9304 19.8199 19.9404 19.8499C19.9904 20.0899 20.2004 20.2599 20.4304 20.2599C20.4604 20.2599 20.4904 20.2599 20.5204 20.2599C20.7904 20.2099 20.9704 19.9499 20.9204 19.6799C20.8904 19.5399 20.2304 16.2199 17.7904 15.8699V15.8499Z" fill="#0026F9"/>
<path d="M29.14 29.14L22.34 22.34C24.16 20.29 25.27 17.6 25.27 14.64C25.28 8.22 20.06 3 13.64 3C7.22 3 2 8.22 2 14.64C2 21.06 7.22 26.28 13.64 26.28C16.75 26.28 19.56 25.05 21.65 23.06L28.44 29.85C28.54 29.95 28.67 30 28.79 30C28.91 30 29.05 29.95 29.14 29.85C29.34 29.65 29.34 29.34 29.14 29.14ZM13.63 25.28C7.76 25.28 2.99 20.51 2.99 14.64C2.99 8.77 7.77 4 13.64 4C19.51 4 24.28 8.77 24.28 14.64C24.28 20.51 19.51 25.28 13.64 25.28H13.63Z" fill="#0026F9"/>
</g>
<defs>
<clipPath id="clip0_2216_1567">
<rect width="27.29" height="26.99" fill="white" transform="translate(2 3)"/>
</clipPath>
</defs>
</svg>
