<svg width="26" height="26" viewBox="0 0 26 26" fill="none" xmlns="http://www.w3.org/2000/svg">
<path d="M26 13.0048C26 5.83241 20.1711 0 13 0C5.82894 0 0 5.83241 0 13.0048C0 20.1772 5.82894 26.0096 13 26.0096C13 26.0096 13.0098 26.0096 13.0196 26.0096C20.1711 25.9904 25.9902 20.1676 25.9902 13.0145L26 13.0048ZM13.0294 25.036C13.0294 25.036 13.0196 25.036 13.0098 25.036C10.6782 25.036 8.64054 22.6259 7.54333 19.059C9.15976 18.8276 10.8742 18.7023 12.6081 18.7023C14.636 18.7023 16.6051 18.8661 18.4469 19.165C17.3497 22.6644 15.3316 25.0167 13.0294 25.0263V25.036ZM12.6081 17.7382C10.786 17.7382 8.99322 17.8732 7.28862 18.1142C6.93595 16.6971 6.73022 15.1257 6.71063 13.4772H19.3188C19.2894 15.1739 19.0739 16.7838 18.7114 18.2299C16.7913 17.9021 14.7242 17.7286 12.6179 17.7286L12.6081 17.7382ZM13.0098 1.21468C15.2728 1.21468 17.2517 3.47052 18.3685 6.85428C16.7619 7.07601 15.0573 7.20133 13.3429 7.20133C11.3836 7.20133 9.47325 7.04709 7.68048 6.76752C8.79729 3.4416 10.7664 1.21468 13.0098 1.21468ZM13.3429 8.16537C15.1552 8.16537 16.948 8.0304 18.6526 7.7894C19.0347 9.22581 19.2698 10.8261 19.309 12.5228H6.71063C6.75961 10.7972 6.99472 9.15832 7.39638 7.70263C9.26752 8.01112 11.2856 8.17501 13.3429 8.17501V8.16537ZM20.2886 12.5132C20.2396 10.7586 20.0143 9.11012 19.6225 7.62551C20.9156 7.40378 22.1304 7.10493 23.2472 6.74824C24.2856 8.44494 24.9028 10.4116 24.991 12.5132H20.2886ZM5.73097 12.5132H0.999246C1.08742 10.3248 1.75358 8.29069 2.86059 6.55543C3.9578 6.94105 5.15298 7.25918 6.42653 7.50983C6.01507 9.02336 5.77995 10.7201 5.73097 12.5132ZM5.73097 13.4772C5.76036 15.1835 5.95629 16.8031 6.30897 18.2781C5.02562 18.4998 3.81085 18.7987 2.69405 19.1554C1.6948 17.4779 1.08742 15.5499 1.00904 13.4772H5.73097ZM20.2984 13.4772H25.0008C24.9126 15.6366 24.2562 17.6515 23.1786 19.3771C22.101 18.9915 20.9352 18.6733 19.6812 18.4131C20.0535 16.9092 20.2788 15.2414 20.2984 13.4772ZM22.6986 5.90953C21.6601 6.22766 20.5433 6.48795 19.358 6.6904C18.6036 4.32851 17.4378 2.45829 16.0173 1.35929C18.7408 2.06303 21.0821 3.70189 22.6986 5.90953ZM10.0219 1.34965C8.62095 2.43901 7.46496 4.27067 6.71063 6.58435C5.54484 6.36262 4.44763 6.07341 3.43858 5.736C5.05501 3.60549 7.3572 2.03411 10.0219 1.34965ZM3.24265 20.0037C4.27129 19.6856 5.38809 19.4253 6.56368 19.2228C7.23964 21.498 8.29766 23.3489 9.59081 24.5443C7.00452 23.7731 4.78071 22.1535 3.24265 20.0037ZM16.4484 24.5347C17.7121 23.3682 18.7506 21.5751 19.4265 19.3674C20.5629 19.5988 21.6307 19.8784 22.6104 20.2158C21.0821 22.2499 18.9367 23.7924 16.4484 24.5347Z" fill="#0026F9"/>
</svg>
