<svg width="32" height="32" viewBox="0 0 32 32" fill="none" xmlns="http://www.w3.org/2000/svg">
<g clip-path="url(#clip0_2216_1599)">
<path d="M14.4305 7.32005C14.3605 7.13005 14.1805 7.01005 13.9705 7.00005C13.7805 6.99005 13.5805 7.12005 13.5005 7.30005L6.04046 24.5301C5.93046 24.7801 6.04046 25.0801 6.30046 25.1901C6.55046 25.3001 6.85046 25.1901 6.96046 24.9301L8.87046 20.5201H18.5405L20.2705 24.9101C20.3505 25.1101 20.5405 25.2301 20.7405 25.2301C20.8005 25.2301 20.8605 25.2201 20.9205 25.2001C21.1805 25.1001 21.3005 24.8101 21.2005 24.5501L14.4305 7.32005ZM9.30046 19.5101L13.9405 8.81005L18.1505 19.5101H9.30046Z" fill="#0026F9"/>
<path d="M25.1797 7C24.8997 7 24.6797 7.22 24.6797 7.5V24.54C24.6797 24.82 24.8997 25.04 25.1797 25.04C25.4597 25.04 25.6797 24.82 25.6797 24.54V7.5C25.6797 7.22 25.4597 7 25.1797 7Z" fill="#0026F9"/>
</g>
<defs>
<clipPath id="clip0_2216_1599">
<rect width="19.68" height="18.23" fill="white" transform="translate(6 7)"/>
</clipPath>
</defs>
</svg>
