<svg width="32" height="32" viewBox="0 0 32 32" fill="none" xmlns="http://www.w3.org/2000/svg">
<g clip-path="url(#clip0_2216_1738)">
<path d="M23.1118 29.3332H7.55483C5.59572 29.3332 4 27.7645 4 25.8387V6.16097C4 4.23513 5.59572 2.6665 7.55483 2.6665H23.1118C25.0709 2.6665 26.6667 4.23513 26.6667 6.16097V25.8387C26.6667 27.7645 25.0709 29.3332 23.1118 29.3332ZM7.55483 3.7019C6.17503 3.7019 5.05328 4.8046 5.05328 6.16097V25.8387C5.05328 27.1951 6.17503 28.2978 7.55483 28.2978H23.1118C24.4916 28.2978 25.6134 27.1951 25.6134 25.8387V6.16097C25.6134 4.8046 24.4916 3.7019 23.1118 3.7019H7.55483Z" fill="#0026F9"/>
<path d="M9.84032 12.9221C9.71919 12.9221 9.5928 12.8807 9.49274 12.7927L8.06554 11.5657C7.84435 11.3793 7.82328 11.048 8.01814 10.8357C8.20773 10.6183 8.54478 10.5976 8.7607 10.7892L9.81925 11.7003L12.3208 9.28265C12.5262 9.08075 12.8632 9.08593 13.0634 9.28783C13.2688 9.48973 13.2635 9.82106 13.0581 10.0178L10.209 12.7719C10.1089 12.8703 9.97198 12.9221 9.84032 12.9221Z" fill="#0026F9"/>
<path d="M10.0669 18.1355C9.94576 18.1355 9.81936 18.094 9.7193 18.006L8.2921 16.7791C8.07091 16.5927 8.04984 16.2614 8.2447 16.0491C8.43429 15.8317 8.77134 15.811 8.98727 16.0025L10.0458 16.9137L12.5474 14.496C12.7528 14.2941 13.0898 14.2993 13.2899 14.5012C13.4953 14.7031 13.4901 15.0344 13.2847 15.2312L10.4355 17.9853C10.3355 18.0837 10.1985 18.1355 10.0669 18.1355Z" fill="#0026F9"/>
<path d="M10.0669 23.3483C9.94576 23.3483 9.81936 23.3069 9.7193 23.2189L8.2921 21.992C8.07091 21.8056 8.04984 21.4743 8.2447 21.262C8.43956 21.0498 8.77134 21.0239 8.98727 21.2154L10.0458 22.1266L12.5474 19.7089C12.7528 19.507 13.0898 19.5122 13.2899 19.7141C13.4953 19.916 13.4901 20.2473 13.2847 20.4441L10.4355 23.1982C10.3355 23.2966 10.1985 23.3483 10.0669 23.3483Z" fill="#0026F9"/>
<path d="M22.3692 11.5452H15.9231C15.6335 11.5452 15.3965 11.3122 15.3965 11.0275C15.3965 10.7427 15.6335 10.5098 15.9231 10.5098H22.3692C22.6589 10.5098 22.8959 10.7427 22.8959 11.0275C22.8959 11.3122 22.6589 11.5452 22.3692 11.5452Z" fill="#0026F9"/>
<path d="M22.3692 16.7581H15.9231C15.6335 16.7581 15.3965 16.5251 15.3965 16.2404C15.3965 15.9556 15.6335 15.7227 15.9231 15.7227H22.3692C22.6589 15.7227 22.8959 15.9556 22.8959 16.2404C22.8959 16.5251 22.6589 16.7581 22.3692 16.7581Z" fill="#0026F9"/>
<path d="M22.3692 22.655H15.9231C15.6335 22.655 15.3965 22.4221 15.3965 22.1373C15.3965 21.8526 15.6335 21.6196 15.9231 21.6196H22.3692C22.6589 21.6196 22.8959 21.8526 22.8959 22.1373C22.8959 22.4221 22.6589 22.655 22.3692 22.655Z" fill="#0026F9"/>
</g>
<defs>
<clipPath id="clip0_2216_1738">
<rect width="22.6667" height="26.6667" fill="white" transform="translate(4 2.6665)"/>
</clipPath>
</defs>
</svg>
