<svg width="16" height="52" viewBox="0 0 16 52" fill="none" xmlns="http://www.w3.org/2000/svg">
<path d="M1.56103 51.4798C1.00875 51.4798 0.561036 51.032 0.561034 50.4798L0.561036 41.4798C0.561036 40.9275 1.00875 40.4798 1.56104 40.4798C2.11332 40.4798 2.56104 40.9275 2.56104 41.4798L2.56104 49.4798L10.561 49.4798C11.1133 49.4798 11.561 49.9275 11.561 50.4798C11.561 51.032 11.1133 51.4798 10.561 51.4798L1.56103 51.4798ZM6.24617 47.2088L2.26814 51.1869L0.853927 49.7726L4.83196 45.7946L6.24617 47.2088ZM6.24617 0.331467C19.191 13.2763 19.191 34.264 6.24617 47.2088L4.83196 45.7946C16.9957 33.6308 16.9957 13.9095 4.83196 1.74568L6.24617 0.331467Z" fill="#0026F9"/>
</svg>
